<mxfile host="app.diagrams.net" modified="2023-11-22T12:52:10.993Z" agent="Mozilla/5.0 (Windows NT 10.0; Win64; x64) AppleWebKit/537.36 (KHTML, like Gecko) Chrome/119.0.0.0 Safari/537.36" etag="KFp1bajz-jMLkHTKjpZ7" version="22.1.3" type="github">
  <diagram id="C5RBs43oDa-KdzZeNtuy" name="Page-1">
    <mxGraphModel dx="707" dy="579" grid="1" gridSize="10" guides="1" tooltips="1" connect="1" arrows="1" fold="1" page="1" pageScale="1" pageWidth="827" pageHeight="1169" math="0" shadow="0">
      <root>
        <mxCell id="WIyWlLk6GJQsqaUBKTNV-0" />
        <mxCell id="WIyWlLk6GJQsqaUBKTNV-1" parent="WIyWlLk6GJQsqaUBKTNV-0" />
        <mxCell id="vU6tflBY2Oa9qITrF131-1" style="edgeStyle=elbowEdgeStyle;rounded=0;orthogonalLoop=1;jettySize=auto;html=1;exitX=0.5;exitY=1;exitDx=0;exitDy=0;" edge="1" parent="WIyWlLk6GJQsqaUBKTNV-1" source="mSUpR_fla1lzJgeqvzbN-0" target="vU6tflBY2Oa9qITrF131-0">
          <mxGeometry relative="1" as="geometry" />
        </mxCell>
        <mxCell id="mSUpR_fla1lzJgeqvzbN-0" value="&lt;font style=&quot;font-size: 24px;&quot;&gt;coffee machine&lt;/font&gt;" style="rounded=0;whiteSpace=wrap;html=1;" parent="WIyWlLk6GJQsqaUBKTNV-1" vertex="1">
          <mxGeometry x="290" y="130" width="200" height="60" as="geometry" />
        </mxCell>
        <mxCell id="vU6tflBY2Oa9qITrF131-7" style="edgeStyle=elbowEdgeStyle;rounded=0;orthogonalLoop=1;jettySize=auto;html=1;exitX=0.5;exitY=1;exitDx=0;exitDy=0;" edge="1" parent="WIyWlLk6GJQsqaUBKTNV-1" source="vU6tflBY2Oa9qITrF131-0" target="vU6tflBY2Oa9qITrF131-3">
          <mxGeometry relative="1" as="geometry" />
        </mxCell>
        <mxCell id="vU6tflBY2Oa9qITrF131-9" style="edgeStyle=elbowEdgeStyle;rounded=0;orthogonalLoop=1;jettySize=auto;html=1;exitX=0.5;exitY=1;exitDx=0;exitDy=0;" edge="1" parent="WIyWlLk6GJQsqaUBKTNV-1" source="vU6tflBY2Oa9qITrF131-0" target="vU6tflBY2Oa9qITrF131-8">
          <mxGeometry relative="1" as="geometry" />
        </mxCell>
        <mxCell id="vU6tflBY2Oa9qITrF131-11" style="edgeStyle=elbowEdgeStyle;rounded=0;orthogonalLoop=1;jettySize=auto;html=1;exitX=0.5;exitY=1;exitDx=0;exitDy=0;" edge="1" parent="WIyWlLk6GJQsqaUBKTNV-1" source="vU6tflBY2Oa9qITrF131-0" target="vU6tflBY2Oa9qITrF131-10">
          <mxGeometry relative="1" as="geometry" />
        </mxCell>
        <mxCell id="vU6tflBY2Oa9qITrF131-0" value="input&lt;br&gt;What Would You like?&lt;br&gt;(espresso/latte/cappucino)" style="rounded=1;whiteSpace=wrap;html=1;arcSize=27;" vertex="1" parent="WIyWlLk6GJQsqaUBKTNV-1">
          <mxGeometry x="305" y="230" width="170" height="60" as="geometry" />
        </mxCell>
        <mxCell id="vU6tflBY2Oa9qITrF131-3" value="Espressso" style="rounded=1;whiteSpace=wrap;html=1;" vertex="1" parent="WIyWlLk6GJQsqaUBKTNV-1">
          <mxGeometry x="130" y="340" width="120" height="60" as="geometry" />
        </mxCell>
        <mxCell id="vU6tflBY2Oa9qITrF131-8" value="latte" style="rounded=1;whiteSpace=wrap;html=1;" vertex="1" parent="WIyWlLk6GJQsqaUBKTNV-1">
          <mxGeometry x="330" y="390" width="120" height="60" as="geometry" />
        </mxCell>
        <mxCell id="vU6tflBY2Oa9qITrF131-10" value="cappuccino" style="rounded=1;whiteSpace=wrap;html=1;" vertex="1" parent="WIyWlLk6GJQsqaUBKTNV-1">
          <mxGeometry x="540" y="330" width="120" height="60" as="geometry" />
        </mxCell>
      </root>
    </mxGraphModel>
  </diagram>
</mxfile>
